<svg id="_0321_travel_plans" xmlns="http://www.w3.org/2000/svg" xmlns:xlink="http://www.w3.org/1999/xlink" viewBox="0 0 500 500" data-imageid="travel-planning-27" imageName="Travel Planning" class="illustrations_image" style="width: 188px;"><defs><style>.cls-1_travel-planning-27{fill:url(#linear-gradient);}.cls-1_travel-planning-27,.cls-2_travel-planning-27,.cls-3_travel-planning-27,.cls-4_travel-planning-27,.cls-5_travel-planning-27,.cls-6_travel-planning-27,.cls-7_travel-planning-27,.cls-8_travel-planning-27,.cls-9_travel-planning-27,.cls-10_travel-planning-27,.cls-11_travel-planning-27,.cls-12_travel-planning-27{stroke-width:0px;}.cls-2_travel-planning-27{isolation:isolate;opacity:.18;}.cls-2_travel-planning-27,.cls-12_travel-planning-27{fill:#68e1fd;}.cls-3_travel-planning-27{fill:url(#linear-gradient-4-travel-planning-27);}.cls-4_travel-planning-27{fill:url(#linear-gradient-2-travel-planning-27);}.cls-5_travel-planning-27{fill:url(#linear-gradient-3-travel-planning-27);}.cls-6_travel-planning-27{fill:url(#linear-gradient-5-travel-planning-27);}.cls-7_travel-planning-27{fill:#452d21;}.cls-8_travel-planning-27{fill:#231f20;}.cls-9_travel-planning-27{fill:#fff;}.cls-10_travel-planning-27{fill:#ffcd90;}.cls-11_travel-planning-27{fill:#ffb4a3;}</style><linearGradient id="linear-gradient-travel-planning-27" x1="257.46" y1="272.57" x2="228.79" y2="246.07" gradientUnits="userSpaceOnUse"><stop offset="0" stop-color="#fff" stop-opacity="0"/><stop offset="1" stop-color="#fff"/></linearGradient><linearGradient id="linear-gradient-2-travel-planning-27" x1="313.37" y1="2681.27" x2="282.23" y2="2684.07" gradientTransform="translate(-61.05 3053.79) scale(1 -1)" gradientUnits="userSpaceOnUse"><stop offset="0" stop-color="#231f20" stop-opacity="0"/><stop offset="1" stop-color="#231f20"/></linearGradient><linearGradient id="linear-gradient-3-travel-planning-27" x1="345.8" y1="2677.79" x2="304.7" y2="2673.42" xlink:href="#linear-gradient-2-travel-planning-27"/><linearGradient id="linear-gradient-4-travel-planning-27" x1="299.42" y1="283.53" x2="259.89" y2="273.54" xlink:href="#linear-gradient-travel-planning-27"/><linearGradient id="linear-gradient-5-travel-planning-27" x1="277.62" y1="333.74" x2="321.9" y2="230.41" xlink:href="#linear-gradient-travel-planning-27"/></defs><g id="background_travel-planning-27"><path class="cls-2_travel-planning-27 targetColor" d="M419.96,226.73c.67-25.28-10.37-49.23-21.3-72.04-12.7-26.51-26.23-53.86-49.25-72.22-27.87-22.28-66.27-27.98-101.53-22.56-35.26,5.41-68.17,20.82-99.87,37.2-18.72,9.68-37.34,19.83-53.96,32.79-10.35,8.07-20.14,17.59-25.04,29.81-4.28,10.6-4.51,22.33-4.67,33.76l-1.76,119.74c-.1,6.51-.17,13.21,2.12,19.31,3.09,8.19,9.98,14.25,16.62,19.95,13.47,11.57,27.95,23.61,45.52,26.23,18.51,2.77,36.89-5.49,55.6-5.96,22.48-.54,43.48,10.09,65.01,16.58,26.97,8.09,55.45,9.8,83.19,4.98,19.82-3.47,39.76-10.73,53.76-25.15,8.06-8.35,13.78-18.61,18.33-29.26,6.26-14.66,10.44-30.12,12.41-45.93,1.38-11.02,6.87-22.66,7.25-33.47.41-11.02-2.74-22.29-2.43-33.76Z" style="fill: rgb(206, 219, 149);"/></g><g id="character_travel-planning-27"><ellipse class="cls-2_travel-planning-27 targetColor" cx="265.52" cy="465.05" rx="124.55" ry="22.42" style="fill: rgb(206, 219, 149);"/><path class="cls-12_travel-planning-27 targetColor" d="M219.77,264.5c-4.34-4.48-9.27-8.34-14.64-11.5-1.99-1.3-4.23-2.2-6.57-2.64-5.64-.74-10.8,3.23-11.54,8.87-.24,1.82.01,3.66.73,5.35,1.34,2.64,3.28,4.93,5.66,6.68,7.79,6.49,16.53,11.75,25.91,15.6,1.67.79,3.47,1.24,5.32,1.32,2.79,0,5.31-1.66,7.46-3.43,6.17-5.1,10.73-11.92,14.83-18.75,3.15-5.18,6.18-10.51,7.83-16.34.94-3.32,1.43-6.74,2.04-10.12s1.28-6.5,2.09-9.72c.69-2.73,3.1-7.25,2.87-10-.54-6.28-9.12.52-11.42,2.17-9.07,6.69-16.64,15.2-22.23,24.98-3.29,5.59-6.09,11.45-8.35,17.53Z" style="fill: rgb(206, 219, 149);"/><path class="cls-1_travel-planning-27" d="M219.77,264.5c-4.34-4.48-9.27-8.34-14.64-11.5-1.99-1.3-4.23-2.2-6.57-2.64-5.64-.74-10.8,3.23-11.54,8.87-.24,1.82.01,3.66.73,5.35,1.34,2.64,3.28,4.93,5.66,6.68,7.79,6.49,16.53,11.75,25.91,15.6,1.67.79,3.47,1.24,5.32,1.32,2.79,0,5.31-1.66,7.46-3.43,6.17-5.1,10.73-11.92,14.83-18.75,3.15-5.18,6.18-10.51,7.83-16.34.94-3.32,1.43-6.74,2.04-10.12s1.28-6.5,2.09-9.72c.69-2.73,3.1-7.25,2.87-10-.54-6.28-9.12.52-11.42,2.17-9.07,6.69-16.64,15.2-22.23,24.98-3.29,5.59-6.09,11.45-8.35,17.53Z"/><path class="cls-11_travel-planning-27" d="M191.64,249.43c-1.37-2.2-2.88-4.3-4.53-6.3-.23-.29-.54-.6-.91-.52s-.56.56-.78.92c-.87,1.44-3.14.92-4.45-.14s-2.5-2.56-4.2-2.66c-1.85.1-3.36,1.52-3.58,3.36-.16,1.81.21,3.62,1.06,5.22.65,1.53,1.4,3.02,2.23,4.46,1.05,1.91,2.43,3.62,4.08,5.04,1.62,1.26,3.49,2.18,5.47,2.71,1.92.63,3.97.76,5.96.39,2.01-.39,3.71-1.72,4.57-3.58,1.68-4.11-3.16-5.99-4.94-8.91Z"/><path class="cls-10_travel-planning-27" d="M238,440.52c-.05.66.04,1.32.26,1.94.66,1.5,2.69,1.91,4.25,1.4,1.56-.51,2.83-1.66,3.48-3.17.51-1.43.68-2.96.5-4.47-.1-1.45-.29-2.9-.58-4.33-.09-1.05-.62-2.01-1.45-2.65-1.9-1.07-5.45,1.26-6.17,3.1-.91,2.28-.26,5.76-.29,8.18Z"/><path class="cls-8_travel-planning-27" d="M244.64,440.37c-.56.54-1.19.99-1.87,1.36-.92.34-1.9.45-2.87.32-.78-.19-1.6-.19-2.38,0-.44.24-.85.56-1.19.93-.83.68-1.73,1.28-2.68,1.79l-3.96,2.18c-1.18.61-2.29,1.36-3.3,2.23-.61.57-1.13,1.19-1.74,1.82-.3.24-.54.54-.73.87-.22.65-.04,1.37.47,1.84.51.44,1.14.73,1.8.83.78.18,1.58.26,2.38.23,1.15-.08,2.28-.23,3.41-.45,2.54-.3,5.05-.78,7.52-1.42,2.48-.75,4.9-1.67,7.32-2.59.87-.26,1.67-.73,2.31-1.37.8-1.27.97-2.84.45-4.26-.24-1-.54-1.99-.91-2.96-.36-.94-.93-1.98-1.92-2.16-.69-.06-1.37.16-1.9.61l-.21.19Z"/><path class="cls-8_travel-planning-27" d="M222.17,366.28c1.85,19.15,5.1,38.14,9.72,56.82.72,2.89,1.51,5.87,3.37,8.19,1.86,2.33,5.12,3.79,7.89,2.72,2.3-1.09,3.87-3.28,4.15-5.81.27-2.48.14-4.99-.38-7.43-2.92-20.09-1.28-40.54,1.47-60.68.73-6.53,2.04-12.97,3.91-19.27,1.32-4.16,3.11-8.25,3.4-12.62.82-12.81-11.84-22.22-23.96-19.47-11.22,2.54-10.34,21.21-10.66,30.03-.25,9.19.12,18.38,1.09,27.52Z"/><path class="cls-4_travel-planning-27" d="M222.17,366.28c1.85,19.15,5.1,38.14,9.72,56.82.72,2.89,1.51,5.87,3.37,8.19,1.86,2.33,5.12,3.79,7.89,2.72,2.3-1.09,3.87-3.28,4.15-5.81.27-2.48.14-4.99-.38-7.43-2.92-20.09-1.28-40.54,1.47-60.68.73-6.53,2.04-12.97,3.91-19.27,1.32-4.16,3.11-8.25,3.4-12.62.82-12.81-11.84-22.22-23.96-19.47-11.22,2.54-10.34,21.21-10.66,30.03-.25,9.19.12,18.38,1.09,27.52Z"/><path class="cls-10_travel-planning-27" d="M291.81,450.7c.24.61.6,1.17,1.06,1.65,1.19,1.07,3.24.57,4.45-.54,1.19-1.14,1.84-2.72,1.8-4.36-.15-1.52-.65-2.99-1.47-4.28-.71-1.28-1.51-2.5-2.38-3.67-.51-.9-1.38-1.54-2.38-1.78-2.18-.17-4.41,3.46-4.27,5.43.1,2.48,2.16,5.35,3.2,7.56Z"/><path class="cls-8_travel-planning-27" d="M299.57,448.32c-.54-.3-1.19-.25-2.05.49-.58.63-1.2,1.21-1.86,1.75-1.13.73-2.61.68-3.85,1.19-.74.38-1.42.86-2.03,1.43-2.32,1.83-4.41,3.94-6.2,6.28-1.19,1.68-3.97,4.46-1.98,6.56.97,1.01,2.61.94,3.97.58,1.4-.4,2.77-.91,4.09-1.51,3.1-1.31,6.19-2.62,9.19-4.13,1.16-.49,2.22-1.22,3.1-2.12,1.37-1.69,1.77-3.97,1.06-6.02-.35-.6-.78-1.16-1.26-1.67-.73-.89-1.3-2.34-2.18-2.84Z"/><path class="cls-8_travel-planning-27" d="M244.35,317.91c-1.73,5.96-.24,12.31,1.07,18.36,3.46,15.97,5.72,32.17,6.76,48.47.06,2.55.4,5.09,1,7.57.75,2.33,1.76,4.56,3.02,6.65,7.63,13.94,15.76,27.59,24.37,40.95,2.03,3.15,4.67,6.63,8.42,6.7,4.77.11,7.73-5.69,6.94-10.37s-3.94-8.57-6.28-12.71c-3.58-6.26-5.4-13.34-7.15-20.33s-3.58-14.14-4.08-21.39c-1.07-16.69,4.95-32.82,8.5-49.11.8-2.99,1.09-6.1.85-9.19-.79-6.28-5.7-11.56-11.57-13.94-9.6-3.88-28.34-3.71-31.85,8.34Z"/><path class="cls-5_travel-planning-27" d="M244.35,317.91c-1.73,5.96-.24,12.31,1.07,18.36,3.46,15.97,5.72,32.17,6.76,48.47.06,2.55.4,5.09,1,7.57.75,2.33,1.76,4.56,3.02,6.65,7.63,13.94,15.76,27.59,24.37,40.95,2.03,3.15,4.67,6.63,8.42,6.7,4.77.11,7.73-5.69,6.94-10.37s-3.94-8.57-6.28-12.71c-3.58-6.26-5.4-13.34-7.15-20.33s-3.58-14.14-4.08-21.39c-1.07-16.69,4.95-32.82,8.5-49.11.8-2.99,1.09-6.1.85-9.19-.79-6.28-5.7-11.56-11.57-13.94-9.6-3.88-28.34-3.71-31.85,8.34Z"/><path class="cls-12_travel-planning-27 targetColor" d="M249.16,227.16c-3.64,5.9-5.81,12.57-7.94,19.15-1.65,5.07-3.29,10.15-4.5,15.35-2.19,9.46-2.92,19.23-5.6,28.56-2.46,8.56-6.57,17.42-4.07,25.97,1.03,3.24,2.75,6.22,5.02,8.74,9.99,11.35,25.66,15.87,40.16,11.58,2.75-.82,5.36-2.06,7.73-3.68,6.27-4.42,9.77-11.92,11.35-19.41,1.59-7.49,1.54-15.26,2.24-22.91,1.19-13.02,4.58-25.83,4.77-38.9s-3.58-27.12-13.75-35.27c-12.97-10.33-28-1.19-35.42,10.83Z" style="fill: rgb(206, 219, 149);"/><path class="cls-3_travel-planning-27" d="M249.16,227.16c-3.64,5.9-5.81,12.57-7.94,19.15-1.65,5.07-3.29,10.15-4.5,15.35-2.19,9.46-2.92,19.23-5.6,28.56-2.46,8.56-6.57,17.42-4.07,25.97,1.03,3.24,2.75,6.22,5.02,8.74,9.99,11.35,25.66,15.87,40.16,11.58,2.75-.82,5.36-2.06,7.73-3.68,6.27-4.42,9.77-11.92,11.35-19.41,1.59-7.49,1.54-15.26,2.24-22.91,1.19-13.02,4.58-25.83,4.77-38.9s-3.58-27.12-13.75-35.27c-12.97-10.33-28-1.19-35.42,10.83Z"/><path class="cls-11_travel-planning-27" d="M252.92,183.23c-1.13,3.95-2,8.1-1.36,12.16s3.04,8.05,6.86,9.54c1.57.63,3.41.89,4.52,2.17.91,1.36,1.27,3.02,1,4.64-.09,1.63-.26,3.25-.51,4.87-.21.9-.25,1.82-.12,2.73.41,1.6,1.69,2.82,3.3,3.17,1.59.33,3.24.12,4.7-.6,4.39-1.94,7.15-6.49,8.35-11.14,1.19-4.65,1.11-9.54,1.49-14.31.33-2.69.46-5.39.38-8.1-.45-5.96-3.5-11.41-8.35-14.91-3.43-2.47-10.84-5.6-14.94-2.99-1.44.92-1.97,2.61-2.5,4.14-1.01,2.85-1.99,5.74-2.81,8.62Z"/><path class="cls-7_travel-planning-27" d="M260.59,155.32c-1.93.53-3.46,2-4.08,3.9-.59,1.89-.66,3.9-.21,5.82.81,4.24,2.92,8.13,6.05,11.11,1.94,1.85,4.27,3.36,5.63,5.65.81,1.48,1.31,3.1,1.48,4.77.07.51.18,1.11.64,1.35s1.19-.19,1.69-.63c.93-.89,2.11-1.84,3.36-1.51s1.93,2.05,1.93,3.48c.14,1.71-.6,3.37-1.98,4.39-.43.26-.99.48-1.12.95-.2.7.58,1.19,1,1.84.42.83.61,1.76.54,2.69-.07.94.39,1.83,1.19,2.33.72.18,1.48.03,2.06-.43,2.38-1.47,3.65-4.14,5.66-6.05,1.3-1.19,2.9-2.15,4.26-3.33,2.95-2.51,4.59-6.24,4.42-10.11-.24-3.89-2.58-7.34-6.11-9-1.91-.83-4.07-1.05-5.84-2.11-2.46-1.47-3.74-4.22-5.21-6.67-1.4-2.68-3.88-4.64-6.81-5.39-3.03-.79-5.21-3.77-8.56-3.05Z"/><path class="cls-12_travel-planning-27 targetColor" d="M290.08,222.29s16.41,21.32,21.73,65.59c5.32,44.26-.99,58.71-.99,58.71,0,0-11.33,5.86-13.98-.54-2.65-6.39-3.26-64.54-13.12-77.1-9.86-12.57-2.65-43.94,6.36-46.65Z" style="fill: rgb(206, 219, 149);"/><path class="cls-6_travel-planning-27" d="M290.08,222.29s16.41,21.32,21.73,65.59c5.32,44.26-.99,58.71-.99,58.71,0,0-11.33,5.86-13.98-.54-2.65-6.39-3.26-64.54-13.12-77.1-9.86-12.57-2.65-43.94,6.36-46.65Z"/><path class="cls-11_travel-planning-27" d="M295.54,358.05c-.31.89-.38,2.23.55,2.38s1.72-.69,2.23-.11c.15.2.22.45.2.7.15,2.56-.34,5.11-1.42,7.43-.38.58-.54,1.29-.45,1.98.35,1.19,2.06,1.32,3.27.94,4.35-1.35,7.5-5.34,8.85-9.69s1.19-9.02.62-13.53c-.03-1.44-.54-2.83-1.45-3.95-2.15-2.09-6.05-1-7.39,1.31-2.19,3.78-3.57,8.42-5,12.53Z"/></g><g id="icon_5_travel-planning-27"><circle class="cls-12_travel-planning-27 targetColor" cx="407.51" cy="332.05" r="47.65" style="fill: rgb(206, 219, 149);"/><path class="cls-9_travel-planning-27" d="M409.86,364.67c-17.34.05-31.43-13.97-31.48-31.31-.05-17.34,13.97-31.43,31.31-31.48,17.34-.05,31.43,13.97,31.48,31.31,0,.02,0,.04,0,.06-.03,17.3-14.01,31.34-31.31,31.42ZM380.41,333.27c0,16.2,13.12,29.34,29.32,29.35,16.2,0,29.34-13.12,29.35-29.32,0-16.16-13.06-29.28-29.22-29.35-16.21,0-29.38,13.11-29.45,29.32Z"/><path class="cls-9_travel-planning-27" d="M409.86,307.17c14.42.07,26.06,11.81,26,26.23s-11.81,26.06-26.23,26c-14.38-.07-26-11.75-26-26.13-.02-14.4,11.63-26.08,26.03-26.1.07,0,.14,0,.2,0ZM433.84,333.32c.02-13.28-10.73-24.07-24.02-24.09-13.28-.02-24.07,10.73-24.09,24.02-.02,13.28,10.73,24.07,24.02,24.09.01,0,.02,0,.04,0,13.21-.13,23.88-10.81,24-24.02h.05Z"/><path class="cls-9_travel-planning-27" d="M394.45,349.34c-.07-.94.01-1.88.25-2.79,2.38-4.28,5.01-8.42,7.15-12.78,1.77-3.67,4.74-6.61,8.42-8.35,4.29-2.12,8.35-4.77,12.57-7.06.71-.24,1.45-.37,2.19-.38,0,.75-.11,1.49-.36,2.19-3.13,5.62-6.31,11.21-9.54,16.77-.4.7-.97,1.29-1.66,1.72-5.71,3.32-11.45,6.57-17.18,9.84-.35.17-.75.31-1.85.85ZM398.41,344.22l.39.39,12.78-7.37c-1.97-2.11-3.78-4.04-5.71-6.13-2.55,4.5-5.01,8.8-7.46,13.11ZM421.07,322.35l-.39-.38-12.72,7.27,5.65,6.17,7.46-13.06Z"/><path class="cls-9_travel-planning-27" d="M408.73,314.23c-.08-.39-.08-.8,0-1.19.31-.56.67-1.09,1.07-1.57.38.44.68.94.88,1.49.16.97.16,1.95,0,2.92-.1.57-.68,1.05-1.05,1.57-.35-.46-.65-.97-.88-1.5-.09-.57-.09-1.15-.02-1.72Z"/><path class="cls-9_travel-planning-27" d="M390.97,334.79l-3.06-1.4c.94-.5,1.95-.86,3.01-1.05,1.03.12,2.04.4,2.98.83l-2.92,1.61Z"/><path class="cls-9_travel-planning-27" d="M428.7,334.3c-.16.03-.33.03-.49,0-.88-.32-1.75-.67-2.64-1.01l2.65-1c.16-.05.32-.05.48,0l2.87,1.01-2.64,1.41-.24-.41Z"/><path class="cls-9_travel-planning-27" d="M410.74,352.34c.08.39.08.8,0,1.19-.31.56-.67,1.08-1.07,1.57-.3-.5-.8-.97-.88-1.5-.16-.96-.16-1.95,0-2.91.11-.57.68-1.06,1.05-1.59.36.47.66.98.89,1.51.08.57.08,1.15.01,1.72Z"/></g><g id="icon_4_travel-planning-27"><circle class="cls-12_travel-planning-27 targetColor" cx="412.52" cy="162.27" r="47.65" style="fill: rgb(206, 219, 149);"/><path class="cls-9_travel-planning-27" d="M396.8,143.15c0-.98-.06-2.07,0-3.16.21-2.95,1.73-4.77,4.66-4.88,5.65-.18,11.33-.19,16.98,0,3.03.08,4.58,1.96,4.77,5.01.06,1.03,0,2.05,0,3.41h11.75c2.28.11,3.28,1.01,3.29,3.23v20.09c0,.63-.08,1.54-.49,1.84-1.68,1.19-1.34,2.95-1.34,4.59v9.05c0,2.49-1.03,3.58-3.49,3.58-15.24.05-30.47.05-45.7,0-2.6,0-3.58-1.06-3.58-3.68v-10.59c-.17-.8-.45-1.57-.85-2.29-.46-.88-.77-1.83-.93-2.81-.08-6.48,0-12.95,0-19.43,0-2.64.94-3.58,3.65-3.58,3.58,0,7.15,0,10.82-.07-.01,0,.12-.13.45-.31ZM414,170.99c.25.05.51.08.76.08l20.14-2.72c1.36-.18,1.57-1.04,1.57-2.19v-18.54c0-1.56-.45-2.24-2.15-2.24-16.19.05-32.38.05-48.57,0-1.67,0-2.17.66-2.16,2.22.06,6.19,0,12.37,0,18.54-.19,1.06.52,2.07,1.58,2.25.14.03.29.03.44.03,4.08.5,8.16,1.19,12.23,1.68,2.73.37,5.46.7,8.17,1.05.78-3.58,1.34-4.1,4.13-4.08,2.59.02,3.14.57,3.85,3.92ZM434.5,170.29c-6.17.86-11.92,1.75-17.8,2.38-1.92.23-3.11.52-3.02,2.87.08,1.86-1.3,2.69-3.06,2.75s-4.04.06-4.03-2.03c0-3.64-2.33-3.58-4.69-3.8-1.03-.12-2.04-.27-3.06-.42l-13.3-1.75c0,3.8.12,7.32,0,10.83-.1,2.21.58,2.9,2.85,2.89,12.81-.11,25.61-.06,38.42-.06h5.96c1.19,0,1.79-.41,1.78-1.65-.06-3.85-.05-7.74-.05-12.01h0ZM410.01,136.9h-7.73c-2.34.18-4.08,2.23-3.9,4.56.04.51.17,1.02.39,1.48.21.28.54.45.89.47.35-.02.66-.21.85-.5.1-.42.14-.86.1-1.3q.08-2.85,2.99-2.85h11.26c1.38,0,2.96-.18,4.04.43.6.33.32,2.15.54,3.28.07.35.41.83.69.89.41.06.83-.1,1.1-.42,1.38-2.38-.57-5.96-3.27-6.05s-5.29.01-7.95.01h0ZM417.43,140.74h-14.83v2.62h14.83v-2.62ZM408.18,172.58h0v1.53c-.08,1.4.1,2.38,1.94,2.38s1.81-1.01,1.78-2.28,0-2.48,0-3.72-.75-1.8-1.8-1.53c-.77.26-1.42.79-1.82,1.49-.35.56-.1,1.42-.1,2.16v-.04Z"/></g><g id="icon_3_travel-planning-27"><circle class="cls-12_travel-planning-27 targetColor" cx="245.75" cy="66.1" r="47.65" style="fill: rgb(206, 219, 149);"/><path class="cls-9_travel-planning-27" d="M253.56,70.06l-18.41,16.21c.74,3.51,1.48,6.83,2.09,10.18.21.94.13,1.93-.23,2.83-.49.96-1.26,1.75-2.22,2.25-.32.16-1.49-.91-1.94-1.63-1.69-2.72-3.24-5.52-4.77-8.26-6.84,1.11-8.61-.62-6.73-6.75-2.72-1.59-5.51-3.14-8.2-4.77-.75-.62-1.41-1.33-1.98-2.11,1.03-.79,2.11-2.31,3.06-2.23,3.58.31,7.04,1.19,10.55,1.79.49.14.96.32,1.42.55,5.46-6.19,10.91-12.37,16.58-18.81l-10.6-6.18c-2.78-1.61-5.54-3.24-8.35-4.77-1.31-.73-1.62-1.82-.5-2.65,1.35-1.18,3-1.96,4.77-2.27,7.93-.36,15.77,1.75,22.45,6.03,1.94-1.84,3.77-3.58,5.65-5.33,3.24-2.98,7.61-4.4,11.98-3.9,3.35.27,4.28,1.25,4.51,4.67.37,5.05-1.66,9.97-5.49,13.28-1.28,1.19-2.61,2.38-3.39,3.05,1.84,5.76,3.76,11.08,5.18,16.53.48,2.61.6,5.27.35,7.91-.12,1.11-.57,2.16-1.3,3.01-1.65,1.99-2.65,1.85-3.95-.39-3.46-5.95-6.88-11.94-10.54-18.24ZM270.62,46.52c-.17-2.25.24-4.22-2.83-4.33-4.55-.32-8.98,1.56-11.92,5.04-8.72,9.96-17.51,19.87-26.1,29.93-2.43,2.98-4.63,6.13-6.59,9.43-.45.94-.4,2.04.13,2.93.92.51,2.02.54,2.97.08,2.22-1.09,4.31-2.43,6.22-3.98,11.27-9.66,22.48-19.39,33.63-29.18,2.9-2.48,4.55-6.12,4.5-9.93ZM266.13,87.71c3.01-4.11,0-18.51-4.77-24.27l-6.17,5.22,10.93,19.04ZM249.5,51.3c-6.4-4.09-13.87-6.17-21.46-5.96-1.14.22-2.26.58-3.32,1.06l19.39,11.23,5.39-6.33ZM224.9,79.78c-3.55-1.82-7.57-2.49-11.52-1.92l9.12,5.28,2.4-3.36ZM234.63,98.86c.81-3.7.18-7.57-1.74-10.84l-3.22,2.38,4.96,8.45Z"/><path class="cls-9_travel-planning-27" d="M267.48,50.6c.04.41-.03.81-.18,1.19-.44.6-.93,1.15-1.48,1.65-.28-.63-.44-1.3-.48-1.99.43-2.85-1.11-4.33-4.04-3.88-.65-.02-1.28-.15-1.88-.39.48-.54.85-1.31,1.43-1.54,2.63-.89,5.48.51,6.37,3.14.2.59.29,1.2.26,1.82Z"/></g><g id="icon_2_travel-planning-27"><circle class="cls-12_travel-planning-27 targetColor" cx="90.46" cy="108.46" r="47.65" style="fill: rgb(206, 219, 149);"/><path class="cls-9_travel-planning-27" d="M113.1,112.18c8.45,1.19,8.97,1.74,8.97,10.12v4.21c-.21,3.85-2.31,5.89-6.17,6.05h-2.54c-.12.56-.21,1.05-.32,1.53-.85,3.71-2.6,5.22-6.42,5.23h-34.14c-4.17,0-5.64-1.5-6.75-6.51-.22-.11-.45-.19-.69-.21-5.54.5-8.49-1.97-8.1-8.35.1-1.48,0-2.97,0-4.46,0-5.19,1.93-7.15,7.06-7.29.51,0,1.03,0,1.88-.1v-17.05c0-.49-.66-1.19-1.19-1.42-2.01-1.02-3.24-3.11-3.15-5.35v-5.52c.1-4.34,2.07-6.34,6.49-6.45,3.49-.08,7,0,10.51,0,1.34,0,2.38-.1,2.83-1.65.17-.4.44-.76.78-1.04,3.2-3.42,13.25-2.38,15.84,1.42.55.69,1.36,1.12,2.24,1.19,3.58.13,7.15,0,10.73.08,4.53.1,6.48,2.11,6.55,6.67.17,1.99.12,3.99-.17,5.96-.37,1.66-1.28,3.15-2.59,4.23-1.11.62-1.76,1.82-1.67,3.09.06,5.15.02,10.31.02,15.61ZM68.35,94.6c-.07.93-.16,1.61-.16,2.3v35.2c0,4.03,1.05,5.02,5.23,5.02h32.04c4.41,0,5.35-.95,5.35-5.44,0-11.46,0-22.92,0-34.4v-2.66h-4.5c-.14,1.66-.11,3.34.1,5,.21,1.01,1.85,1.86,1.84,2.77s-1.29,1.79-2,2.72c-.25.35-.29.83-.51,1.19-.96,1.54-2.98,2-4.52,1.04-.39-.25-.73-.57-.99-.96-.89-1.41-1.69-2.87-2.62-4.46,3.58-1.5,1.4-4.63,1.97-7.25h-20.03c.36,2.77-1.49,5.87,1.99,7.41-.67,1.13-1.43,2.21-2.28,3.22-.94.97-2.16,2.38-3.23,2.38s-2.19-1.5-3.16-2.47c-.37-.36-.24-1.44-.56-1.56-3.95-1.44-.87-2.02.23-2.77v-6.28h-4.19ZM99.35,78.98h-19.81v13.12h19.85l-.05-13.12ZM72.51,78.78c-2.91.56-6.84-1.61-8.1,1.82-1.1,3.28-1.03,6.83.19,10.06,1.26,2.99,5.09,1.19,7.91,1.48v-13.37ZM106.45,92.44c2.97-.92,6.93,1.36,8.1-2.02,1.08-3.28,1.02-6.83-.18-10.08-1.19-3.03-5.1-1.11-7.92-1.54v13.63ZM65.77,114.81c-5.6-.49-6.57.41-6.58,5.81v3.94c0,5.26,1.26,6.34,6.58,5.53v-15.28ZM113.1,114.81v15.5c5.86.36,6.71-.45,6.71-5.96v-3.68c0-5.45-.92-6.27-6.71-5.89v.04ZM77.16,79.11l-.7-.5c-.52.54-1.48,1.06-1.5,1.61-.14,3.49-.12,6.99,0,10.48,0,.49.64.97,1,1.44.41-.51,1.19-1.01,1.19-1.54.07-3.78.01-7.67.01-11.5ZM104.1,79.04l-.7-.45c-.5.57-1.41,1.13-1.43,1.72-.13,3.49-.11,6.99,0,10.48,0,.47.72.92,1.09,1.37.38-.45,1.07-.91,1.09-1.37.01-3.96-.02-7.83-.02-11.75h-.01ZM83.12,76.27h12.72c-2.47-2.81-10.09-2.84-12.72,0ZM74.88,97.74c-.1.6-.1,1.2,0,1.8.29.58.65,1.12,1.09,1.6.5-.47.9-1.02,1.19-1.63.19-.84.19-1.72,0-2.56-.28-.83-.65-1.63-1.11-2.38-.38.79-.79,1.57-1.19,2.38-.03.25-.02.51.04.75v.05ZM104.11,98.02c.09-.6.09-1.2,0-1.8-.28-.59-.65-1.14-1.09-1.63-.38.52-.99,1-1.12,1.59-.19.94-.19,1.9,0,2.84.26.75.61,1.47,1.06,2.12.38-.7.81-1.4,1.19-2.12.05-.34.04-.7-.04-1.04v.05Z"/><path class="cls-9_travel-planning-27" d="M89.5,134.84c-4.64,0-9.28-.1-13.9,0-2.38.07-3.03-.79-2.96-3.05.14-4.89.08-9.79,0-14.69,0-1.78.57-2.52,2.38-2.52,9.62.06,19.24.06,28.87,0,1.85,0,2.38.75,2.38,2.52-.07,5.08-.1,10.15,0,15.22,0,2.07-.89,2.53-2.69,2.52-4.64-.02-9.36.01-14.08.01ZM103.59,117.02h-28.17c.14,4.39,3.45,8.02,7.8,8.57,1.94.21,4.53,1.55,5.74-1.57.35-.13.74-.13,1.1,0,1.19,3.14,3.79,1.79,5.74,1.57,4.35-.55,7.66-4.19,7.8-8.57ZM104.03,122.98c-3.42,4.02-7.46,5.21-12.02,5.19-.51,0-.95.97-1.55,1.19-.62.21-1.29.21-1.91,0-.81-.29-1.53-1.19-2.31-1.19-3.3-.2-6.43-.8-9.05-2.98-.68-.56-1.32-1.19-2.13-1.87v8.98h28.98v-9.31Z"/></g><g id="icon_1_travel-planning-27"><circle class="cls-12_travel-planning-27 targetColor" cx="80.75" cy="311.39" r="47.65" style="fill: rgb(206, 219, 149);"/><path class="cls-9_travel-planning-27" d="M82.55,344.66c-17.82-.11-32.18-14.64-32.08-32.46.03-4.43.96-8.8,2.75-12.86.17-.47.39-.92.66-1.35,1.66-2.23,2.4-5.02,2.07-7.79-.73-7.15,7.21-11.92,13.76-8.75,1.08.5,2.3.63,3.46.35,16.94-5.18,34.87,4.36,40.05,21.31.61,1.99,1.02,4.04,1.23,6.12,1.84,16.78-9.78,32.06-26.44,34.77-1.81.39-3.65.45-5.47.66ZM84.94,328.61c-.37,3.68-1.19,6.98-5.15,8.7-.72.31-.95,2.54-.75,3.78.1.6,1.72,1.31,2.66,1.35,2.08.08,4.16-.06,6.2-.43,8.66-1.51,16.19-6.8,20.55-14.43l-3.58-1.6c-2,3.04-3.91,5.87-5.77,8.74-1.11,1.71-2.09,1.63-3.18,0s-2.38-3.58-3.78-5.51c-.79.94-1.38,1.73-2.03,2.46-1.56,1.75-3.27,1.62-4.4-.43-.35-.83-.63-1.69-.82-2.58-.34-1.93-.58-3.88-.72-5.84,0-1.92-.83-3.12-2.67-3.32-2.37-.29-4.77-.37-7.15-.23-3.45.3-5.78-.87-6.65-3.84s.21-4.45,3.77-6.2c3.23-1.48,6.27-3.36,9.03-5.59,2.84-2.44,2.77-4.52.44-7.44-3.08-3.86-3.68-7.91-1.57-12.37.11-.39.17-.79.2-1.19l-6.61,1.45c2.52,3.13,2.76,7.52.6,10.91-1.98,3.58-4.15,7.05-6.37,10.48-1.44,2.22-2.09,2.18-3.58,0-2.04-2.98-3.98-6.03-6.14-9.34-.7,1.37-1.63,2.38-1.76,3.58-.74,6.55-.69,13.22,2.46,19.08,3.95,7.36,7.56,7.95,13.65,5.28.61-.26,1.25-.45,1.86-.73,4.48-1.92,7.69-.78,9.97,3.52.38.6.8,1.17,1.25,1.72h.06ZM109.36,325.53c2.15-4.04,3.26-8.54,3.23-13.12-.07-4.16-1.79-6.84-5.81-8.06-1.84-.56-3.95-.14-5.96-.42-2.77-.25-5.51-.81-8.16-1.66-2.87-1.19-4.11-4.65-3.43-7.88.73-3.47,2.25-4.64,6.09-5.09,1.4-.35,2.75-.85,4.04-1.49-4.7-3.29-10.29-5.09-16.03-5.16-.54,0-1.29.67-1.6,1.19-2.2,3.41-1.87,7.88.82,10.92,3.09,3.95,2.98,7.31-.82,10.57-2.84,2.38-6.38,4.1-9.73,5.9-1.41.76-2.89,1.19-2.38,3.18.25,1.77,1.89,2.99,3.66,2.74.07,0,.13-.02.19-.03,2.4-.29,4.83-.29,7.23,0,4.51.67,5.46,2.18,5.58,6.76.22,2.36.59,4.71,1.11,7.02q3.74-3.34,2-6.89c-.32-.68-.63-1.37-.88-2.07-1.72-4.7.58-9.92,5.2-11.83,4.69-1.96,10.09.05,12.37,4.59,1.56,3.11,1.03,6.12-.29,9.19l3.57,1.63ZM76.57,341.7c-.26-3.04.18-5.52,3.01-7.02s3.47-3.99,2.05-6.95-3.92-3.9-6.8-2.68c-1.19.52-2.44,1.06-3.7,1.51-5.46,1.99-9.64.94-12.99-3.79-1.54-2.35-2.74-4.9-3.58-7.58-.63-2.32-1.1-4.69-1.38-7.08-3.04,13.55,6.83,30.67,23.38,33.6ZM101.31,289.24c-2.07.82-3.84,1.99-5.69,2.13-2.65.21-4.01,1.3-4.4,3.8-.49,2.48.93,4.94,3.33,5.75,1.63.63,3.36.96,5.1.97,3.95-.33,7.77-.54,11.24,2.05-1.48-5.83-4.85-11.01-9.59-14.73v.02ZM97.02,332.94l1.01.17c2.19-4.09,4.45-8.14,6.52-12.29.39-1.01.47-2.11.24-3.17-.45-2.89-2.63-5.21-5.5-5.83-2.63-.82-5.5.02-7.27,2.13-2.13,2.06-2.62,5.29-1.19,7.88,1.84,3.76,4.09,7.39,6.19,11.09v.02ZM64.93,304.03h.95c2.1-3.78,4.35-7.48,6.22-11.35,1.49-3.07.5-6.77-2.33-8.68-2.73-1.99-6.45-1.91-9.09.19-2.77,2-3.64,5.74-2.04,8.76,1.91,3.74,4.2,7.39,6.27,11.08Z"/><path class="cls-9_travel-planning-27" d="M93.25,317.75c.13-2.36,2.14-4.18,4.51-4.08,2.27.14,4.01,2.07,3.92,4.34-.03,2.27-1.88,4.08-4.15,4.06-.1,0-.19,0-.29-.01-2.27-.13-4.03-2.03-3.99-4.3ZM97.56,314.89c-1,1.42-2.04,2.24-1.96,2.95s1.19,1.42,1.86,2.12c.7-.67,1.86-1.28,1.98-2.04s-.92-1.57-1.88-3.03Z"/><path class="cls-9_travel-planning-27" d="M65.38,293.19c-2.27-.06-4.12-1.83-4.29-4.09-.04-2.35,1.83-4.29,4.18-4.33,0,0,.02,0,.02,0,2.26-.07,4.15,1.72,4.22,3.98,0,.02,0,.03,0,.05.08,2.34-1.76,4.31-4.1,4.39-.01,0-.03,0-.04,0ZM65.45,285.93c-1.01,1.37-2.06,2.18-2,2.91s1.19,1.98,1.82,1.98c.95-.21,1.72-.91,2.03-1.84.11-.72-.87-1.6-1.85-3.02v-.04Z"/></g></svg>